<svg width="54" height="54" viewBox="0 0 54 54" fill="none" xmlns="http://www.w3.org/2000/svg">
<path fill-rule="evenodd" clip-rule="evenodd" d="M41.289 48.7532C36.9241 51.6782 31.7923 53.2394 26.5427 53.2394C19.5031 53.2394 12.7519 50.4349 7.77417 45.4427C2.79645 40.4505 0 33.6797 0 26.6197C0 21.3548 1.5567 16.2082 4.47325 11.8306C7.3898 7.45302 11.5352 4.0411 16.3852 2.02632C21.2353 0.0115337 26.5721 -0.515625 31.7209 0.511502C36.8697 1.53863 41.5991 4.07391 45.3112 7.79675C49.0233 11.5196 51.5512 16.2628 52.5754 21.4265C53.5995 26.5902 53.0739 31.9425 51.0649 36.8067C49.056 41.6708 45.6539 45.8282 41.289 48.7532ZM31.1284 18.7241H37.8475H37.8551C37.9141 18.7231 37.9728 18.734 38.0275 18.7562C38.0823 18.7783 38.132 18.8114 38.1737 18.8532C38.2155 18.8951 38.2484 18.945 38.2705 18.9999C38.2927 19.0548 38.3035 19.1136 38.3025 19.1728V35.3044H35.1022V20.3365C35.1011 20.2277 35.069 20.1216 35.0097 20.0305C34.9504 19.9395 34.8664 19.8673 34.7676 19.8225C34.6687 19.7778 34.5592 19.7623 34.4519 19.7779C34.3446 19.7935 34.2439 19.8395 34.1618 19.9106L28.1329 25.2345V35.2968H25.0236V24.4435C25.0317 23.9854 24.9485 23.5302 24.779 23.1046C24.6095 22.679 24.357 22.2917 24.0364 21.9652C23.7158 21.6387 23.3335 21.3796 22.9118 21.2031C22.4901 21.0266 22.0375 20.9363 21.5806 20.9373H21.4669C20.8495 20.931 20.2418 21.0912 19.7075 21.4013C19.1773 21.7091 18.7388 22.1534 18.4374 22.6883C18.1361 23.2233 17.9828 23.8292 17.9936 24.4435V35.2968H14.8994V24.4435C14.8801 23.3583 15.1413 22.2866 15.6578 21.3328C16.1912 20.3856 16.9796 19.6081 17.9329 19.0892C19.0214 18.5078 20.2416 18.2195 21.4744 18.2526H21.5351C22.7654 18.2201 23.9831 18.5084 25.0691 19.0892C26.0234 19.6068 26.8121 20.3846 27.3442 21.3328C27.4079 21.4416 27.461 21.5557 27.5123 21.6661C27.522 21.687 27.5317 21.7078 27.5413 21.7283L30.8251 18.8382C30.9088 18.7641 31.0168 18.7235 31.1284 18.7241Z" fill="#5F58FF"/>
</svg>
