<svg width="180" height="180" viewBox="0 0 180 180" fill="none" xmlns="http://www.w3.org/2000/svg">
<path d="M89.9923 0C40.2946 0 0 40.2946 0 89.9923C0 139.69 40.2946 179.985 89.9923 179.985C139.69 179.985 179.985 139.69 179.985 89.9923C179.985 40.2946 139.705 0 89.9923 0ZM129.824 119.311H118.972V68.7351C118.972 67.0857 117.03 66.2225 115.797 67.3015L95.3567 85.2753V119.281H84.89V82.5931C84.89 80.4042 84.3659 78.4003 83.3176 76.6276C82.2694 74.8394 80.8512 73.4213 79.0785 72.3885C77.3212 71.3557 75.3019 70.8316 73.0975 70.8316H72.7122C70.5078 70.8316 68.4885 71.3557 66.7312 72.3885C64.9585 73.4213 63.5403 74.8394 62.4921 76.6276C61.4593 78.4003 60.9198 80.4042 60.9198 82.5931V119.281H50.453V82.5931C50.453 78.7857 51.3471 75.2711 53.1044 72.0956C54.8771 68.9201 57.4514 66.3612 60.781 64.496C64.0952 62.6308 68.1339 61.6751 72.7893 61.6751H72.9896C77.6295 61.6751 81.6837 62.6154 84.9979 64.496C88.3275 66.3766 90.9172 68.9355 92.6745 72.0956C92.9211 72.5272 93.1369 72.9742 93.3528 73.4213L104.482 63.6482C104.76 63.4016 105.114 63.2628 105.5 63.2628H128.283C129.131 63.2628 129.809 63.9411 129.809 64.7889V119.296L129.824 119.311Z" fill="#5F58FF"/>
</svg>
